<svg width="618" height="254" viewBox="0 0 618 254" fill="none" xmlns="http://www.w3.org/2000/svg">
<g clip-path="url(#clip0_65_387)">
<path fill-rule="evenodd" clip-rule="evenodd" d="M48.2134 75.9672C50.0801 74.782 51.6098 73.2053 53.5355 71.0328C55.4979 68.8189 55.4395 65.3677 55.3843 62.1055C55.3079 57.5853 55.2376 53.4279 60.5578 53.4279C65.8245 53.4279 71.0913 65.1646 68.7505 77.488C68.1843 80.4689 67.5052 82.9179 66.7163 85.0301C64.6202 90.6422 61.6325 95.8602 58.6517 101.066C54.825 107.75 51.0095 114.414 49.1059 121.867C48.3034 125.009 47.6426 128.507 47.0984 133.237C45.3428 148.494 47.6835 155.536 53.5355 169.034C60.1762 184.35 68.1653 191.333 81.0396 203.07C88.4853 209.858 102.489 216.653 106 219C106.753 219.504 109.5 224.214 114.5 228.5C119.5 232.786 131.526 237.464 133.5 238C147.5 241.801 154.538 241.378 162.967 241.801C174.556 242.382 183.788 241.647 191.425 240.188L191.783 240.12C193.478 239.675 195.399 239.288 197.493 238.867C205.521 237.251 216.439 234.759 225.583 230.064C232.591 226.466 233.006 218.395 232.02 212.459C231.435 208.938 228.509 200.861 223.828 200.136C221.334 199.749 219.107 200.463 216.439 200.861C212.919 201.385 209.197 202.483 201.005 204.243C190.705 206.457 178.767 205.69 171.16 205.103C163.552 204.516 161.796 203.222 155.359 201.462C146.11 198.932 139.965 186.492 147.332 180.338C149.149 178.82 151.324 177.789 153.604 177.715C166.239 177.307 168.726 177.435 173.23 177.715C174.867 177.817 176.506 177.943 178.146 178.068C185.717 178.648 193.29 179.228 200.657 177.463C208.362 175.617 211.843 173.206 215.05 170.794C220.026 167.051 227.086 158.328 228.5 155.5C228.807 154.886 229.113 154.159 229.408 153.383C231.274 148.47 232.188 143.237 232.523 137.993C232.774 134.057 232.831 130.244 232.5 128.5C231.926 125.472 231.508 121 228.5 113C226.295 107.136 222.967 102.202 222.657 100.961L219.731 76.3142L216.864 62.9302C216.6 61.0829 207.5 66 203 69.5L195.5 75.5L182.808 86.9643C182.48 87.2742 179.934 86.6242 179.5 86.5L177.5 86C173.42 84.8311 171.919 85.2978 167.691 85.6511C167.304 85.6834 166.931 85.5001 166.72 85.174L159.456 73.9669L155.222 67.5925C154.076 65.8667 152.8 64.2302 151.406 62.6971L148.5 59.5C147.436 57.9658 141.192 55.2647 140.5 57C138.508 60.3206 136.933 63.8747 135.812 67.5814L129.61 88.0935C129.231 89.5885 128.359 90.9061 127.274 91.9993C121.622 97.693 116.936 103.57 112.64 110.351C112.527 110.543 110.824 113.377 110.707 113.567C108.995 116.344 95.6695 138.518 102.107 169.034C97.8152 168.642 85.7212 161.992 83.9656 144.974C83.3032 138.553 84.9303 134.496 86.2875 128.469C88.2106 119.929 90.9844 111.577 94.4559 103.544L99.0942 92.8103C102.651 84.5787 105.618 75.938 105.282 66.9731C104.897 56.7059 102.411 45.7925 98.0103 38.1702C87.9812 20.7988 72.8469 13.6211 68.7505 12.9365C68.4933 12.8935 68.2083 12.842 67.8961 12.7856C63.2368 11.9438 52.5064 10.0052 37.15 18.8049C31.8833 21.823 23.6905 29.3678 21.3497 47.5595C20.8146 51.7189 20.1673 64.7461 25.4667 72.7757C30.1521 79.8748 41.0408 80.5212 48.2134 75.9672ZM169.99 112.987C153.202 113.611 145.458 124.594 141.773 136.292C140.135 141.492 143.86 146.654 149.28 147.239C166.141 149.059 182.059 147.906 191.063 146.889C195.564 146.381 198.949 142.685 198.403 138.189C197.192 128.226 191.859 112.175 169.99 112.987Z" fill="#FF87DD"/>
<path d="M263.28 236.32C258.24 236.32 253.76 235.08 249.84 232.6C246 230.12 242.96 226.56 240.72 221.92C238.56 217.28 237.48 211.8 237.48 205.48C237.48 199 238.56 193.48 240.72 188.92C242.96 184.36 246 180.84 249.84 178.36C253.76 175.88 258.24 174.64 263.28 174.64C267.68 174.64 271.64 175.68 275.16 177.76C278.68 179.84 281.04 182.52 282.24 185.8H280.92V160.12C280.92 156.6 281.84 153.92 283.68 152.08C285.52 150.24 288.16 149.32 291.6 149.32C294.96 149.32 297.56 150.24 299.4 152.08C301.32 153.92 302.28 156.6 302.28 160.12V225.28C302.28 228.8 301.36 231.48 299.52 233.32C297.76 235.16 295.16 236.08 291.72 236.08C288.36 236.08 285.76 235.16 283.92 233.32C282.08 231.48 281.16 228.8 281.16 225.28V218.44L282.48 224.32C281.36 227.92 279 230.84 275.4 233.08C271.88 235.24 267.84 236.32 263.28 236.32ZM270.12 220.6C272.28 220.6 274.2 220.08 275.88 219.04C277.56 217.92 278.84 216.28 279.72 214.12C280.68 211.88 281.16 209 281.16 205.48C281.16 200.12 280.12 196.28 278.04 193.96C275.96 191.56 273.32 190.36 270.12 190.36C267.96 190.36 266.04 190.88 264.36 191.92C262.68 192.96 261.36 194.6 260.4 196.84C259.44 199 258.96 201.88 258.96 205.48C258.96 210.76 260 214.6 262.08 217C264.16 219.4 266.84 220.6 270.12 220.6ZM346.334 236.32C341.214 236.32 337.014 235.4 333.734 233.56C330.454 231.64 327.974 228.8 326.294 225.04C324.694 221.28 323.894 216.52 323.894 210.76V185.56C323.894 182.04 324.814 179.4 326.654 177.64C328.494 175.8 331.134 174.88 334.574 174.88C338.014 174.88 340.654 175.8 342.494 177.64C344.334 179.4 345.254 182.04 345.254 185.56V211.36C345.254 214.24 345.854 216.4 347.054 217.84C348.254 219.28 350.134 220 352.694 220C355.574 220 357.934 218.96 359.774 216.88C361.614 214.8 362.534 212.04 362.534 208.6V185.56C362.534 182.04 363.454 179.4 365.294 177.64C367.134 175.8 369.774 174.88 373.214 174.88C376.654 174.88 379.294 175.8 381.134 177.64C382.974 179.4 383.894 182.04 383.894 185.56V225.28C383.894 232.48 380.454 236.08 373.574 236.08C370.214 236.08 367.614 235.16 365.774 233.32C363.934 231.48 363.014 228.8 363.014 225.28V218.32L364.934 224.2C363.174 228.12 360.694 231.12 357.494 233.2C354.374 235.28 350.654 236.32 346.334 236.32ZM436.044 236.32C429.404 236.32 423.604 235.08 418.644 232.6C413.764 230.12 409.964 226.56 407.244 221.92C404.524 217.2 403.164 211.68 403.164 205.36C403.164 200.56 403.924 196.28 405.444 192.52C406.964 188.68 409.164 185.44 412.044 182.8C415.004 180.16 418.484 178.16 422.484 176.8C426.564 175.36 431.084 174.64 436.044 174.64C438.364 174.64 440.804 174.88 443.364 175.36C445.924 175.76 448.564 176.56 451.284 177.76C453.204 178.48 454.524 179.6 455.244 181.12C456.044 182.56 456.364 184.12 456.204 185.8C456.124 187.48 455.644 189 454.764 190.36C453.964 191.72 452.804 192.64 451.284 193.12C449.844 193.6 448.204 193.4 446.364 192.52C445.084 191.88 443.724 191.44 442.284 191.2C440.924 190.88 439.604 190.72 438.324 190.72C436.164 190.72 434.244 191.04 432.564 191.68C430.964 192.32 429.604 193.28 428.484 194.56C427.364 195.76 426.484 197.28 425.844 199.12C425.284 200.96 425.004 203.04 425.004 205.36C425.004 210 426.164 213.64 428.484 216.28C430.804 218.92 434.084 220.24 438.324 220.24C439.604 220.24 440.924 220.12 442.284 219.88C443.644 219.56 445.004 219.08 446.364 218.44C448.204 217.56 449.844 217.4 451.284 217.96C452.724 218.44 453.884 219.36 454.764 220.72C455.644 222.08 456.124 223.6 456.204 225.28C456.284 226.88 455.924 228.44 455.124 229.96C454.324 231.4 452.964 232.48 451.044 233.2C448.404 234.4 445.804 235.2 443.244 235.6C440.764 236.08 438.364 236.32 436.044 236.32ZM494.052 236.32C489.492 236.32 485.452 235.48 481.932 233.8C478.492 232.12 475.772 229.84 473.772 226.96C471.852 224 470.892 220.64 470.892 216.88C470.892 212.56 472.012 209.16 474.252 206.68C476.492 204.2 480.092 202.44 485.052 201.4C490.012 200.28 496.612 199.72 504.852 199.72H511.452V209.8H504.852C501.732 209.8 499.132 210.04 497.052 210.52C495.052 210.92 493.572 211.6 492.612 212.56C491.652 213.44 491.172 214.6 491.172 216.04C491.172 217.88 491.812 219.4 493.092 220.6C494.452 221.8 496.372 222.4 498.852 222.4C500.852 222.4 502.612 221.96 504.132 221.08C505.732 220.2 507.012 219 507.972 217.48C508.932 215.88 509.412 214.04 509.412 211.96V198.04C509.412 195.16 508.652 193.12 507.132 191.92C505.692 190.72 503.172 190.12 499.572 190.12C497.652 190.12 495.492 190.36 493.092 190.84C490.692 191.24 488.012 192 485.052 193.12C482.892 193.92 481.052 194.04 479.532 193.48C478.012 192.92 476.812 191.96 475.932 190.6C475.132 189.24 474.732 187.76 474.732 186.16C474.812 184.56 475.332 183.04 476.292 181.6C477.332 180.16 478.892 179.04 480.972 178.24C484.812 176.8 488.332 175.84 491.532 175.36C494.812 174.88 497.812 174.64 500.532 174.64C507.092 174.64 512.492 175.6 516.732 177.52C521.052 179.36 524.252 182.24 526.332 186.16C528.492 190 529.572 194.96 529.572 201.04V225.28C529.572 228.8 528.732 231.48 527.052 233.32C525.372 235.16 522.932 236.08 519.732 236.08C516.452 236.08 513.932 235.16 512.172 233.32C510.492 231.48 509.652 228.8 509.652 225.28V222.16L510.372 223.84C509.972 226.4 509.052 228.6 507.612 230.44C506.172 232.28 504.292 233.72 501.972 234.76C499.652 235.8 497.012 236.32 494.052 236.32ZM582.295 236.32C576.295 236.32 571.335 235.4 567.415 233.56C563.575 231.72 560.695 228.96 558.775 225.28C556.855 221.52 555.895 216.84 555.895 211.24V191.68H551.815C549.255 191.68 547.255 191 545.815 189.64C544.455 188.28 543.775 186.32 543.775 183.76C543.775 181.2 544.455 179.28 545.815 178C547.255 176.64 549.255 175.96 551.815 175.96H555.895V168.52C555.895 165 556.815 162.32 558.655 160.48C560.495 158.64 563.135 157.72 566.575 157.72C570.015 157.72 572.655 158.64 574.495 160.48C576.335 162.32 577.255 165 577.255 168.52V175.96H587.095C589.735 175.96 591.735 176.64 593.095 178C594.535 179.28 595.255 181.2 595.255 183.76C595.255 186.32 594.535 188.28 593.095 189.64C591.735 191 589.735 191.68 587.095 191.68H577.255V210.52C577.255 213.48 577.935 215.68 579.295 217.12C580.735 218.48 582.975 219.16 586.015 219.16C587.135 219.16 588.215 219.04 589.255 218.8C590.295 218.56 591.255 218.44 592.135 218.44C593.415 218.36 594.455 218.76 595.255 219.64C596.055 220.44 596.455 222.32 596.455 225.28C596.455 227.68 596.095 229.72 595.375 231.4C594.655 233 593.375 234.16 591.535 234.88C590.415 235.28 588.895 235.6 586.975 235.84C585.055 236.16 583.495 236.32 582.295 236.32Z" fill="#FF87DD"/>
</g>
<defs>
<clipPath id="clip0_65_387">
<rect width="618" height="254" fill="white"/>
</clipPath>
</defs>
</svg>
