<svg width="684" height="278" viewBox="0 0 684 278" fill="none" xmlns="http://www.w3.org/2000/svg">
<path fill-rule="evenodd" clip-rule="evenodd" d="M39.2134 68.9672C41.0801 67.782 42.6098 66.2053 44.5355 64.0328C46.4979 61.8189 46.4395 58.3677 46.3843 55.1055C46.3079 50.5853 46.2376 46.4279 51.5578 46.4279C56.8245 46.4279 62.0913 58.1646 59.7505 70.488C59.1843 73.4689 58.5052 75.9179 57.7163 78.0301C55.6202 83.6422 52.6325 88.8602 49.6517 94.0663C45.825 100.75 42.0095 107.414 40.1059 114.867C39.3034 118.009 38.6426 121.507 38.0984 126.237C36.3428 141.494 38.6835 148.536 44.5355 162.034C51.1762 177.35 59.1653 184.333 72.0396 196.07C79.4853 202.858 93.4888 209.653 97 212C97.7534 212.504 100.5 217.214 105.5 221.5C110.5 225.786 122.526 230.464 124.5 231C138.5 234.801 145.538 234.378 153.967 234.801C165.556 235.382 174.788 234.647 182.425 233.188L182.783 233.12C184.478 232.675 186.399 232.288 188.493 231.867C196.521 230.251 207.439 227.759 216.583 223.064C223.591 219.466 224.006 211.395 223.02 205.459C222.435 201.938 219.509 193.861 214.828 193.136C212.334 192.749 210.107 193.463 207.439 193.861C203.919 194.385 200.197 195.483 192.005 197.243C181.705 199.457 169.767 198.69 162.16 198.103C154.552 197.516 152.796 196.222 146.359 194.462C137.11 191.932 130.965 179.492 138.332 173.338C140.149 171.82 142.324 170.789 144.604 170.715C157.239 170.307 159.726 170.435 164.23 170.715C165.867 170.817 167.506 170.943 169.146 171.068C176.717 171.648 184.29 172.228 191.657 170.463C199.362 168.617 202.843 166.206 206.05 163.794C211.026 160.051 218.086 151.328 219.5 148.5C219.807 147.886 220.113 147.159 220.408 146.383C222.274 141.47 223.188 136.237 223.523 130.993C223.774 127.057 223.831 123.244 223.5 121.5C222.926 118.472 222.508 114 219.5 106C217.295 100.136 213.967 95.2023 213.657 93.9611L210.731 69.3142L207.864 55.9302C207.6 54.0829 198.5 59 194 62.5L186.5 68.5L173.808 79.9643C173.48 80.2742 170.934 79.6242 170.5 79.5L168.5 79C164.42 77.8311 162.919 78.2978 158.691 78.6511C158.304 78.6834 157.931 78.5001 157.72 78.174L150.456 66.9669L146.222 60.5925C145.076 58.8667 143.8 57.2302 142.406 55.6971L139.5 52.5C138.436 50.9658 132.192 48.2647 131.5 50V50C129.508 53.3206 127.933 56.8747 126.812 60.5814L120.61 81.0935C120.231 82.5885 119.359 83.9061 118.274 84.9993C112.622 90.693 107.936 96.5695 103.64 103.351C103.527 103.543 101.824 106.377 101.707 106.567C99.9953 109.344 86.6695 131.518 93.1066 162.034C88.8152 161.642 76.7212 154.992 74.9656 137.974C74.3032 131.553 75.9303 127.496 77.2875 121.469C79.2106 112.929 81.9844 104.577 85.4559 96.544L90.0942 85.8103C93.6513 77.5787 96.6178 68.938 96.2818 59.9731C95.897 49.7059 93.4109 38.7925 89.0103 31.1702C78.9812 13.7988 63.8469 6.62111 59.7505 5.93649C59.4933 5.8935 59.2083 5.84201 58.8961 5.7856C54.2368 4.94383 43.5064 3.00521 28.15 11.8049C22.8833 14.823 14.6905 22.3678 12.3497 40.5595C11.8146 44.7189 11.1673 57.7461 16.4667 65.7757C21.1521 72.8748 32.0408 73.5212 39.2134 68.9672ZM160.99 105.987C144.202 106.611 136.458 117.594 132.773 129.292C131.135 134.492 134.86 139.654 140.28 140.239C157.141 142.059 173.059 140.906 182.063 139.889C186.564 139.381 189.949 135.685 189.403 131.189C188.192 121.226 182.859 105.175 160.99 105.987Z" fill="#C954A8"/>
<path d="M263.28 236.32C258.24 236.32 253.76 235.08 249.84 232.6C246 230.12 242.96 226.56 240.72 221.92C238.56 217.28 237.48 211.8 237.48 205.48C237.48 199 238.56 193.48 240.72 188.92C242.96 184.36 246 180.84 249.84 178.36C253.76 175.88 258.24 174.64 263.28 174.64C267.68 174.64 271.64 175.68 275.16 177.76C278.68 179.84 281.04 182.52 282.24 185.8H280.92V160.12C280.92 156.6 281.84 153.92 283.68 152.08C285.52 150.24 288.16 149.32 291.6 149.32C294.96 149.32 297.56 150.24 299.4 152.08C301.32 153.92 302.28 156.6 302.28 160.12V225.28C302.28 228.8 301.36 231.48 299.52 233.32C297.76 235.16 295.16 236.08 291.72 236.08C288.36 236.08 285.76 235.16 283.92 233.32C282.08 231.48 281.16 228.8 281.16 225.28V218.44L282.48 224.32C281.36 227.92 279 230.84 275.4 233.08C271.88 235.24 267.84 236.32 263.28 236.32ZM270.12 220.6C272.28 220.6 274.2 220.08 275.88 219.04C277.56 217.92 278.84 216.28 279.72 214.12C280.68 211.88 281.16 209 281.16 205.48C281.16 200.12 280.12 196.28 278.04 193.96C275.96 191.56 273.32 190.36 270.12 190.36C267.96 190.36 266.04 190.88 264.36 191.92C262.68 192.96 261.36 194.6 260.4 196.84C259.44 199 258.96 201.88 258.96 205.48C258.96 210.76 260 214.6 262.08 217C264.16 219.4 266.84 220.6 270.12 220.6ZM346.334 236.32C341.214 236.32 337.014 235.4 333.734 233.56C330.454 231.64 327.974 228.8 326.294 225.04C324.694 221.28 323.894 216.52 323.894 210.76V185.56C323.894 182.04 324.814 179.4 326.654 177.64C328.494 175.8 331.134 174.88 334.574 174.88C338.014 174.88 340.654 175.8 342.494 177.64C344.334 179.4 345.254 182.04 345.254 185.56V211.36C345.254 214.24 345.854 216.4 347.054 217.84C348.254 219.28 350.134 220 352.694 220C355.574 220 357.934 218.96 359.774 216.88C361.614 214.8 362.534 212.04 362.534 208.6V185.56C362.534 182.04 363.454 179.4 365.294 177.64C367.134 175.8 369.774 174.88 373.214 174.88C376.654 174.88 379.294 175.8 381.134 177.64C382.974 179.4 383.894 182.04 383.894 185.56V225.28C383.894 232.48 380.454 236.08 373.574 236.08C370.214 236.08 367.614 235.16 365.774 233.32C363.934 231.48 363.014 228.8 363.014 225.28V218.32L364.934 224.2C363.174 228.12 360.694 231.12 357.494 233.2C354.374 235.28 350.654 236.32 346.334 236.32ZM436.044 236.32C429.404 236.32 423.604 235.08 418.644 232.6C413.764 230.12 409.964 226.56 407.244 221.92C404.524 217.2 403.164 211.68 403.164 205.36C403.164 200.56 403.924 196.28 405.444 192.52C406.964 188.68 409.164 185.44 412.044 182.8C415.004 180.16 418.484 178.16 422.484 176.8C426.564 175.36 431.084 174.64 436.044 174.64C438.364 174.64 440.804 174.88 443.364 175.36C445.924 175.76 448.564 176.56 451.284 177.76C453.204 178.48 454.524 179.6 455.244 181.12C456.044 182.56 456.364 184.12 456.204 185.8C456.124 187.48 455.644 189 454.764 190.36C453.964 191.72 452.804 192.64 451.284 193.12C449.844 193.6 448.204 193.4 446.364 192.52C445.084 191.88 443.724 191.44 442.284 191.2C440.924 190.88 439.604 190.72 438.324 190.72C436.164 190.72 434.244 191.04 432.564 191.68C430.964 192.32 429.604 193.28 428.484 194.56C427.364 195.76 426.484 197.28 425.844 199.12C425.284 200.96 425.004 203.04 425.004 205.36C425.004 210 426.164 213.64 428.484 216.28C430.804 218.92 434.084 220.24 438.324 220.24C439.604 220.24 440.924 220.12 442.284 219.88C443.644 219.56 445.004 219.08 446.364 218.44C448.204 217.56 449.844 217.4 451.284 217.96C452.724 218.44 453.884 219.36 454.764 220.72C455.644 222.08 456.124 223.6 456.204 225.28C456.284 226.88 455.924 228.44 455.124 229.96C454.324 231.4 452.964 232.48 451.044 233.2C448.404 234.4 445.804 235.2 443.244 235.6C440.764 236.08 438.364 236.32 436.044 236.32ZM494.052 236.32C489.492 236.32 485.452 235.48 481.932 233.8C478.492 232.12 475.772 229.84 473.772 226.96C471.852 224 470.892 220.64 470.892 216.88C470.892 212.56 472.012 209.16 474.252 206.68C476.492 204.2 480.092 202.44 485.052 201.4C490.012 200.28 496.612 199.72 504.852 199.72H511.452V209.8H504.852C501.732 209.8 499.132 210.04 497.052 210.52C495.052 210.92 493.572 211.6 492.612 212.56C491.652 213.44 491.172 214.6 491.172 216.04C491.172 217.88 491.812 219.4 493.092 220.6C494.452 221.8 496.372 222.4 498.852 222.4C500.852 222.4 502.612 221.96 504.132 221.08C505.732 220.2 507.012 219 507.972 217.48C508.932 215.88 509.412 214.04 509.412 211.96V198.04C509.412 195.16 508.652 193.12 507.132 191.92C505.692 190.72 503.172 190.12 499.572 190.12C497.652 190.12 495.492 190.36 493.092 190.84C490.692 191.24 488.012 192 485.052 193.12C482.892 193.92 481.052 194.04 479.532 193.48C478.012 192.92 476.812 191.96 475.932 190.6C475.132 189.24 474.732 187.76 474.732 186.16C474.812 184.56 475.332 183.04 476.292 181.6C477.332 180.16 478.892 179.04 480.972 178.24C484.812 176.8 488.332 175.84 491.532 175.36C494.812 174.88 497.812 174.64 500.532 174.64C507.092 174.64 512.492 175.6 516.732 177.52C521.052 179.36 524.252 182.24 526.332 186.16C528.492 190 529.572 194.96 529.572 201.04V225.28C529.572 228.8 528.732 231.48 527.052 233.32C525.372 235.16 522.932 236.08 519.732 236.08C516.452 236.08 513.932 235.16 512.172 233.32C510.492 231.48 509.652 228.8 509.652 225.28V222.16L510.372 223.84C509.972 226.4 509.052 228.6 507.612 230.44C506.172 232.28 504.292 233.72 501.972 234.76C499.652 235.8 497.012 236.32 494.052 236.32ZM582.295 236.32C576.295 236.32 571.335 235.4 567.415 233.56C563.575 231.72 560.695 228.96 558.775 225.28C556.855 221.52 555.895 216.84 555.895 211.24V191.68H551.815C549.255 191.68 547.255 191 545.815 189.64C544.455 188.28 543.775 186.32 543.775 183.76C543.775 181.2 544.455 179.28 545.815 178C547.255 176.64 549.255 175.96 551.815 175.96H555.895V168.52C555.895 165 556.815 162.32 558.655 160.48C560.495 158.64 563.135 157.72 566.575 157.72C570.015 157.72 572.655 158.64 574.495 160.48C576.335 162.32 577.255 165 577.255 168.52V175.96H587.095C589.735 175.96 591.735 176.64 593.095 178C594.535 179.28 595.255 181.2 595.255 183.76C595.255 186.32 594.535 188.28 593.095 189.64C591.735 191 589.735 191.68 587.095 191.68H577.255V210.52C577.255 213.48 577.935 215.68 579.295 217.12C580.735 218.48 582.975 219.16 586.015 219.16C587.135 219.16 588.215 219.04 589.255 218.8C590.295 218.56 591.255 218.44 592.135 218.44C593.415 218.36 594.455 218.76 595.255 219.64C596.055 220.44 596.455 222.32 596.455 225.28C596.455 227.68 596.095 229.72 595.375 231.4C594.655 233 593.375 234.16 591.535 234.88C590.415 235.28 588.895 235.6 586.975 235.84C585.055 236.16 583.495 236.32 582.295 236.32Z" fill="#C954A8"/>
</svg>
