<svg width="254" height="254" viewBox="0 0 254 254" fill="none" xmlns="http://www.w3.org/2000/svg">
<path fill-rule="evenodd" clip-rule="evenodd" d="M48.2134 75.9672C50.0801 74.782 51.6098 73.2053 53.5355 71.0328C55.4979 68.8189 55.4395 65.3677 55.3843 62.1055C55.3079 57.5853 55.2376 53.4279 60.5578 53.4279C65.8245 53.4279 71.0913 65.1646 68.7505 77.488C68.1843 80.4689 67.5052 82.9179 66.7163 85.0301C64.6202 90.6422 61.6325 95.8602 58.6517 101.066C54.825 107.75 51.0095 114.414 49.1059 121.867C48.3034 125.009 47.6426 128.507 47.0984 133.237C45.3428 148.494 47.6835 155.536 53.5355 169.034C60.1762 184.35 68.1653 191.333 81.0396 203.07C88.4853 209.858 102.489 216.653 106 219C106.753 219.504 109.5 224.214 114.5 228.5C119.5 232.786 131.526 237.464 133.5 238C147.5 241.801 154.538 241.378 162.967 241.801C174.556 242.382 183.788 241.647 191.425 240.188L191.783 240.12C193.478 239.675 195.399 239.288 197.493 238.867C205.521 237.251 216.439 234.759 225.583 230.064C232.591 226.466 233.006 218.395 232.02 212.459C231.435 208.938 228.509 200.861 223.828 200.136C221.334 199.749 219.107 200.463 216.439 200.861C212.919 201.385 209.197 202.483 201.005 204.243C190.705 206.457 178.767 205.69 171.16 205.103C163.552 204.516 161.796 203.222 155.359 201.462C146.11 198.932 139.965 186.492 147.332 180.338C149.149 178.82 151.324 177.789 153.604 177.715C166.239 177.307 168.726 177.435 173.23 177.715C174.867 177.817 176.506 177.943 178.146 178.068C185.717 178.648 193.29 179.228 200.657 177.463C208.362 175.617 211.843 173.206 215.05 170.794C220.026 167.051 227.086 158.328 228.5 155.5C228.807 154.886 229.113 154.159 229.408 153.383C231.274 148.47 232.188 143.237 232.523 137.993C232.774 134.057 232.831 130.244 232.5 128.5C231.926 125.472 231.508 121 228.5 113C226.295 107.136 222.967 102.202 222.657 100.961L219.731 76.3142L216.864 62.9302C216.6 61.0829 207.5 66 203 69.5L195.5 75.5L182.808 86.9643C182.48 87.2742 179.934 86.6242 179.5 86.5L177.5 86C173.42 84.8311 171.919 85.2978 167.691 85.6511C167.304 85.6834 166.931 85.5001 166.72 85.174L159.456 73.9669L155.222 67.5925C154.076 65.8667 152.8 64.2302 151.406 62.6971L148.5 59.5C147.436 57.9658 141.192 55.2647 140.5 57C138.508 60.3206 136.933 63.8747 135.812 67.5814L129.61 88.0935C129.231 89.5885 128.359 90.9061 127.274 91.9993C121.622 97.693 116.936 103.57 112.64 110.351C112.527 110.543 110.824 113.377 110.707 113.567C108.995 116.344 95.6695 138.518 102.107 169.034C97.8152 168.642 85.7212 161.992 83.9656 144.974C83.3032 138.553 84.9303 134.496 86.2875 128.469C88.2106 119.929 90.9844 111.577 94.4559 103.544L99.0942 92.8103C102.651 84.5787 105.618 75.938 105.282 66.9731C104.897 56.7059 102.411 45.7925 98.0103 38.1702C87.9812 20.7988 72.8469 13.6211 68.7505 12.9365C68.4933 12.8935 68.2083 12.842 67.8961 12.7856C63.2368 11.9438 52.5064 10.0052 37.15 18.8049C31.8833 21.823 23.6905 29.3678 21.3497 47.5595C20.8146 51.7189 20.1673 64.7461 25.4667 72.7757C30.1521 79.8748 41.0408 80.5212 48.2134 75.9672ZM169.99 112.987C153.202 113.611 145.458 124.594 141.773 136.292C140.135 141.492 143.86 146.654 149.28 147.239C166.141 149.059 182.059 147.906 191.063 146.889C195.564 146.381 198.949 142.685 198.403 138.189C197.192 128.226 191.859 112.175 169.99 112.987Z" fill="#FF87DD"/>
</svg>
