<svg width="233" height="108" viewBox="0 0 233 108" fill="none" xmlns="http://www.w3.org/2000/svg">
<path fill-rule="evenodd" clip-rule="evenodd" d="M22.313 34.2977C23.054 33.8356 23.6612 33.2209 24.4255 32.3738C25.2045 31.5106 25.1813 30.1651 25.1594 28.8931C25.1291 27.1308 25.1012 25.5098 27.2129 25.5098C29.3035 25.5098 31.394 30.0859 30.4649 34.8907C30.2401 36.0529 29.9706 37.0077 29.6574 37.8313C28.8254 40.0193 27.6395 42.0537 26.4563 44.0835C24.9374 46.6896 23.4229 49.2878 22.6673 52.1937C22.3487 53.4187 22.0865 54.7825 21.8704 56.6267C21.1736 62.5753 22.1027 65.3209 24.4255 70.5837C27.0615 76.5553 30.2326 79.2779 35.3428 83.854C38.2983 86.5006 43.8568 89.1499 45.2505 90.065C45.5494 90.2615 46.6397 92.0979 48.6244 93.769C50.6091 95.4401 55.3826 97.264 56.1661 97.473C61.7232 98.9549 64.5168 98.79 67.8626 98.9549C72.4626 99.1815 76.1271 98.8949 79.1585 98.326L79.3006 98.2995C79.9734 98.126 80.7359 97.9751 81.5671 97.811C84.7537 97.1809 89.0874 96.2093 92.717 94.3788C95.4987 92.9759 95.6634 89.8291 95.272 87.5147C95.0398 86.1419 93.8784 82.9928 92.0203 82.7101C91.0304 82.5592 90.1464 82.8376 89.0874 82.9928C87.6902 83.1971 86.2128 83.6252 82.9611 84.3114C78.8727 85.1746 74.1341 84.8755 71.1147 84.6467C68.0948 84.4178 67.3978 83.9133 64.8427 83.2271C61.1715 82.2407 58.7323 77.3904 61.6565 74.991C62.3777 74.3992 63.2411 73.9972 64.1461 73.9683C69.1613 73.8093 70.1485 73.8592 71.9363 73.9683C72.5861 74.0081 73.2367 74.0572 73.8876 74.106C76.8928 74.3321 79.8988 74.5582 82.823 73.8701C85.8814 73.1503 87.2631 72.2103 88.5361 71.2699C90.5112 69.8105 93.3136 66.4095 93.8748 65.3069C93.9967 65.0675 94.1181 64.784 94.2352 64.4815C94.9759 62.5659 95.3387 60.5257 95.4717 58.4811C95.5713 56.9464 95.5939 55.4598 95.4626 54.7798C95.2347 53.5992 95.0688 51.8556 93.8748 48.7365C92.9996 46.4502 91.6786 44.5264 91.5555 44.0426L90.3941 34.433L89.2561 29.2147C89.1513 28.4944 85.5392 30.4116 83.753 31.7762L80.776 34.1156L75.7381 38.5854C75.6079 38.7062 74.5973 38.4528 74.4251 38.4044L73.6312 38.2094C72.0117 37.7537 71.4159 37.9356 69.7377 38.0734C69.5841 38.086 69.436 38.0145 69.3523 37.8874L66.4689 33.5178L64.7883 31.0325C64.3334 30.3596 63.827 29.7215 63.2736 29.1238L62.1201 27.8773C61.6978 27.2791 59.2193 26.226 58.9447 26.9026C58.154 28.1972 57.5288 29.5829 57.0838 31.0282L54.6221 39.0259C54.4716 39.6083 54.1255 40.1222 53.6948 40.5484C51.4514 42.7684 49.5913 45.0598 47.8861 47.7037C47.8412 47.7785 47.1653 48.8835 47.1188 48.9576C46.4393 50.0403 41.1497 58.6857 43.7052 70.5837C42.0016 70.4308 37.2011 67.8381 36.5043 61.2029C36.2413 58.6994 36.8872 57.1176 37.4259 54.7677C38.1893 51.4381 39.2903 48.1817 40.6683 45.0497L42.5092 40.8646C43.9211 37.6553 45.0988 34.2863 44.9655 30.791C44.8126 26.7879 43.8259 22.5328 42.079 19.561C38.0982 12.788 32.0909 9.98948 30.4649 9.72256C30.3628 9.7058 30.2497 9.68572 30.1257 9.66373C28.2763 9.33552 24.0171 8.57967 17.9216 12.0106C15.8311 13.1873 12.5791 16.129 11.6499 23.2218C11.4375 24.8435 11.1806 29.9227 13.2841 33.0534C15.1439 35.8213 19.466 36.0733 22.313 34.2977ZM70.6502 48.7314C63.9865 48.9747 60.9127 53.2569 59.45 57.8179C58.7998 59.8453 60.2784 61.8579 62.4297 62.086C69.1224 62.7956 75.4408 62.3461 79.0148 61.9495C80.8014 61.7515 82.145 60.3104 81.9283 58.5575C81.4476 54.673 79.3308 48.4148 70.6502 48.7314Z" fill="#FF87DD"/>
<path d="M106.759 89.6712C105.259 89.6712 103.925 89.3085 102.758 88.5833C101.615 87.8582 100.71 86.8171 100.043 85.4603C99.4001 84.1035 99.0786 82.501 99.0786 80.653C99.0786 78.7581 99.4001 77.1439 100.043 75.8105C100.71 74.4771 101.615 73.4478 102.758 72.7226C103.925 71.9974 105.259 71.6348 106.759 71.6348C108.069 71.6348 109.248 71.9389 110.296 72.5471C111.344 73.1553 112.046 73.939 112.404 74.8982H112.011V67.3888C112.011 66.3595 112.285 65.5758 112.832 65.0378C113.38 64.4997 114.166 64.2307 115.19 64.2307C116.19 64.2307 116.964 64.4997 117.512 65.0378C118.084 65.5758 118.37 66.3595 118.37 67.3888V86.4428C118.37 87.4722 118.096 88.2558 117.548 88.7939C117.024 89.3319 116.25 89.601 115.226 89.601C114.226 89.601 113.452 89.3319 112.904 88.7939C112.356 88.2558 112.082 87.4722 112.082 86.4428V84.4427L112.475 86.1621C112.142 87.2148 111.439 88.0687 110.367 88.7237C109.319 89.3553 108.117 89.6712 106.759 89.6712ZM108.796 85.0743C109.439 85.0743 110.01 84.9223 110.51 84.6182C111.01 84.2906 111.391 83.8111 111.653 83.1795C111.939 82.5244 112.082 81.6823 112.082 80.653C112.082 79.0856 111.773 77.9627 111.153 77.2843C110.534 76.5825 109.748 76.2316 108.796 76.2316C108.153 76.2316 107.581 76.3836 107.081 76.6878C106.581 76.9919 106.188 77.4714 105.902 78.1265C105.616 78.7581 105.473 79.6002 105.473 80.653C105.473 82.1969 105.783 83.3198 106.402 84.0216C107.021 84.7234 107.819 85.0743 108.796 85.0743ZM133.985 89.6712C132.461 89.6712 131.211 89.4021 130.234 88.8641C129.258 88.3026 128.52 87.4722 128.019 86.3727C127.543 85.2732 127.305 83.8813 127.305 82.1969V74.828C127.305 73.7987 127.579 73.0267 128.127 72.512C128.674 71.974 129.46 71.7049 130.484 71.7049C131.508 71.7049 132.294 71.974 132.842 72.512C133.39 73.0267 133.664 73.7987 133.664 74.828V82.3724C133.664 83.2145 133.842 83.8462 134.2 84.2673C134.557 84.6883 135.117 84.8989 135.879 84.8989C136.736 84.8989 137.439 84.5948 137.986 83.9865C138.534 83.3783 138.808 82.5712 138.808 81.5653V74.828C138.808 73.7987 139.082 73.0267 139.63 72.512C140.178 71.974 140.963 71.7049 141.988 71.7049C143.012 71.7049 143.798 71.974 144.345 72.512C144.893 73.0267 145.167 73.7987 145.167 74.828V86.4428C145.167 88.5483 144.143 89.601 142.095 89.601C141.094 89.601 140.32 89.3319 139.773 88.7939C139.225 88.2558 138.951 87.4722 138.951 86.4428V84.4076L139.523 86.127C138.999 87.2733 138.26 88.1506 137.308 88.7588C136.379 89.367 135.271 89.6712 133.985 89.6712ZM163.193 89.6712C161.216 89.6712 159.489 89.3085 158.013 88.5833C156.56 87.8582 155.428 86.8171 154.619 85.4603C153.809 84.0801 153.404 82.466 153.404 80.6179C153.404 79.2143 153.63 77.9627 154.083 76.8632C154.535 75.7403 155.19 74.7929 156.048 74.0209C156.929 73.2489 157.965 72.6641 159.156 72.2664C160.37 71.8453 161.716 71.6348 163.193 71.6348C163.883 71.6348 164.61 71.7049 165.372 71.8453C166.134 71.9623 166.92 72.1962 167.729 72.5471C168.301 72.7576 168.694 73.0852 168.908 73.5296C169.147 73.9507 169.242 74.4069 169.194 74.8982C169.17 75.3894 169.027 75.8339 168.765 76.2316C168.527 76.6293 168.182 76.8983 167.729 77.0387C167.301 77.179 166.813 77.1205 166.265 76.8632C165.884 76.6761 165.479 76.5474 165.05 76.4772C164.645 76.3836 164.252 76.3368 163.871 76.3368C163.228 76.3368 162.657 76.4304 162.157 76.6176C161.68 76.8047 161.275 77.0854 160.942 77.4597C160.608 77.8106 160.346 78.2551 160.156 78.7932C159.989 79.3312 159.906 79.9395 159.906 80.6179C159.906 81.9747 160.251 83.0391 160.942 83.8111C161.633 84.5831 162.609 84.9691 163.871 84.9691C164.252 84.9691 164.645 84.934 165.05 84.8638C165.455 84.7702 165.86 84.6298 166.265 84.4427C166.813 84.1854 167.301 84.1386 167.729 84.3023C168.158 84.4427 168.503 84.7117 168.765 85.1094C169.027 85.5071 169.17 85.9516 169.194 86.4428C169.218 86.9107 169.111 87.3669 168.873 87.8114C168.634 88.2325 168.23 88.5483 167.658 88.7588C166.872 89.1097 166.098 89.3436 165.336 89.4606C164.598 89.601 163.883 89.6712 163.193 89.6712ZM182.962 89.6712C181.605 89.6712 180.402 89.4255 179.354 88.9343C178.33 88.443 177.52 87.7763 176.925 86.9341C176.353 86.0685 176.067 85.086 176.067 83.9865C176.067 82.7233 176.401 81.7291 177.068 81.0039C177.735 80.2787 178.806 79.764 180.283 79.4599C181.759 79.1324 183.724 78.9686 186.177 78.9686H188.142V81.9162H186.177C185.249 81.9162 184.475 81.9864 183.855 82.1267C183.26 82.2437 182.819 82.4426 182.533 82.7233C182.248 82.9806 182.105 83.3198 182.105 83.7409C182.105 84.2789 182.295 84.7234 182.676 85.0743C183.081 85.4252 183.653 85.6007 184.391 85.6007C184.987 85.6007 185.51 85.472 185.963 85.2147C186.439 84.9574 186.82 84.6065 187.106 84.162C187.392 83.6941 187.535 83.1561 187.535 82.5478V78.4774C187.535 77.6352 187.309 77.0387 186.856 76.6878C186.427 76.3369 185.677 76.1614 184.605 76.1614C184.034 76.1614 183.391 76.2316 182.676 76.3719C181.962 76.4889 181.164 76.7111 180.283 77.0387C179.64 77.2726 179.092 77.3077 178.64 77.1439C178.187 76.9802 177.83 76.6994 177.568 76.3018C177.33 75.9041 177.211 75.4713 177.211 75.0034C177.234 74.5355 177.389 74.0911 177.675 73.67C177.985 73.2489 178.449 72.9214 179.068 72.6875C180.211 72.2664 181.259 71.9857 182.212 71.8453C183.188 71.7049 184.082 71.6348 184.891 71.6348C186.844 71.6348 188.452 71.9155 189.714 72.4769C191 73.015 191.953 73.8571 192.572 75.0034C193.215 76.1263 193.536 77.5767 193.536 79.3546V86.4428C193.536 87.4722 193.286 88.2558 192.786 88.7939C192.286 89.3319 191.56 89.601 190.607 89.601C189.631 89.601 188.88 89.3319 188.357 88.7939C187.856 88.2558 187.606 87.4722 187.606 86.4428V85.5305L187.821 86.0218C187.702 86.7704 187.428 87.4137 186.999 87.9517C186.57 88.4898 186.011 88.9109 185.32 89.215C184.629 89.5191 183.843 89.6712 182.962 89.6712ZM211.733 89.6712C209.947 89.6712 208.47 89.4021 207.303 88.8641C206.16 88.326 205.302 87.5189 204.731 86.4428C204.159 85.3434 203.873 83.9748 203.873 82.3373V76.6176H202.659C201.897 76.6176 201.301 76.4187 200.873 76.021C200.468 75.6233 200.265 75.0502 200.265 74.3016C200.265 73.553 200.468 72.9916 200.873 72.6173C201.301 72.2196 201.897 72.0207 202.659 72.0207H203.873V69.8452C203.873 68.8158 204.147 68.0322 204.695 67.4941C205.243 66.9561 206.029 66.687 207.053 66.687C208.077 66.687 208.863 66.9561 209.411 67.4941C209.958 68.0322 210.232 68.8158 210.232 69.8452V72.0207H213.162C213.948 72.0207 214.543 72.2196 214.948 72.6173C215.377 72.9916 215.591 73.553 215.591 74.3016C215.591 75.0502 215.377 75.6233 214.948 76.021C214.543 76.4187 213.948 76.6176 213.162 76.6176H210.232V82.1267C210.232 82.9923 210.435 83.6356 210.84 84.0567C211.268 84.4544 211.935 84.6532 212.84 84.6532C213.174 84.6532 213.495 84.6182 213.805 84.548C214.114 84.4778 214.4 84.4427 214.662 84.4427C215.043 84.4193 215.353 84.5363 215.591 84.7936C215.829 85.0275 215.948 85.5773 215.948 86.4428C215.948 87.1447 215.841 87.7412 215.627 88.2325C215.412 88.7003 215.031 89.0395 214.483 89.2501C214.15 89.367 213.698 89.4606 213.126 89.5308C212.554 89.6244 212.09 89.6712 211.733 89.6712Z" fill="#FF87DD"/>
</svg>
